<?xml version="1.0" encoding="UTF-8"?>
<svg width="30px" height="30px" viewBox="0 0 30 30" version="1.1" xmlns="http://www.w3.org/2000/svg" xmlns:xlink="http://www.w3.org/1999/xlink">
    <title>Icon/Animation</title>
    <defs>
        <filter id="filter-1">
            <feColorMatrix in="SourceGraphic" type="matrix" values="0 0 0 0 0.960784 0 0 0 0 0.960784 0 0 0 0 0.960784 0 0 0 1.000000 0"></feColorMatrix>
        </filter>
    </defs>
    <g id="Icon/Animation" stroke="none" stroke-width="1" fill="none" fill-rule="evenodd">
        <g id="Animation">
            <rect id="Rectangle" x="0" y="0" width="30" height="30"></rect>
            <g filter="url(#filter-1)" id="Icon">
                <g transform="translate(2.500000, 4.000000)">
                    <path d="M3.80090485,7.27631062 C5.41978403,2.69407739 9.87414647,-0.265051539 14.7256491,0.018767664 C19.5771517,0.302586867 23.6560841,3.76092462 24.7296155,8.50066737 C25.803147,13.2404101 23.6124463,18.118793 19.3567153,20.4653617 C15.1009843,22.8119304 9.8062913,22.0609208 6.39473289,18.6464963 L6.39473289,18.6464963 L2,14.508 L2,18 C2,18.5128358 1.61395981,18.9355072 1.11662113,18.9932723 L1,19 C0.44771525,19 0,18.5522847 0,18 L0,18 L0,12 C0,11.4477153 0.44771525,11 1,11 L1,11 L7,11 C7.55228475,11 8,11.4477153 8,12 C8,12.5522847 7.55228475,13 7,13 L7,13 L3.582,13 L7.91447458,17.0809212 C10.5940165,19.7621563 14.6876191,20.4003299 18.0461958,18.6906115 L18.3030619,18.5544586 C21.7076467,16.6772036 23.4602073,12.7744973 22.6013821,8.98270315 C21.7425569,5.19090895 18.4794111,2.42423874 14.598209,2.19718338 C10.7170069,1.97012802 7.1535169,4.33743117 5.85841356,8.00321775 C5.65768369,8.57138309 5.03437098,8.8692484 4.46620564,8.66851854 C3.8980403,8.46778868 3.60017499,7.84447596 3.80090485,7.27631062 Z" id="Combined-Shape" fill="#000000" fill-rule="nonzero"></path>
                    <path d="M11.0032498,6.82323216 C11.0032498,6.02453677 11.8933952,5.54814538 12.55795,5.99118186 L12.55795,5.99118186 L18.55795,9.99118186 C19.151683,10.3870039 19.151683,11.2594604 18.55795,11.6552825 L18.55795,11.6552825 L12.55795,15.6552825 C11.8933952,16.0983189 11.0032498,15.6219275 11.0032498,14.8232322 L11.0032498,14.8232322 Z M13.0032498,8.82155074 L13.0032498,13.0845166 L16.2004741,10.9530336 L13.0032498,8.82155074 Z" id="Combined-Shape" fill="#000000" fill-rule="nonzero"></path>
                </g>
            </g>
        </g>
    </g>
</svg>