<?xml version="1.0" encoding="UTF-8"?>
<svg width="30px" height="30px" viewBox="0 0 30 30" version="1.1" xmlns="http://www.w3.org/2000/svg" xmlns:xlink="http://www.w3.org/1999/xlink">
    <title>Icon/Display</title>
    <g id="Icon/Display" stroke="none" stroke-width="1" fill="none" fill-rule="evenodd">
        <rect id="Rectangle" x="0" y="0" width="30" height="30"></rect>
        <path d="M22.7,4 C24.5225397,4 26,5.47746033 26,7.3 L26,22.7 C26,24.5225397 24.5225397,26 22.7,26 L7.3,26 C5.47746033,26 4,24.5225397 4,22.7 L4,7.3 C4,5.47746033 5.47746033,4 7.3,4 L22.7,4 Z M20.79375,14 L16.18125,19.1739711 C15.975792,19.404063 15.6662879,19.5010514 15.3732549,19.4349106 L15.264375,19.4024025 L11.27625,17.9061769 L6,23.2286284 L6,24 L24,24 L24,15.8617159 L20.79375,14 Z M24,6 L6,6 L6,20.2494366 L10.470441,15.7150734 C10.6739883,15.5076367 10.965401,15.4219474 11.2424615,15.4809725 L11.360025,15.5151959 L15.3012199,17 L19.9912418,11.7460779 C20.2304324,11.4760064 20.60764,11.3912024 20.9324175,11.5228225 L21.0384736,11.5747543 L24,13.2879898 L24,6 Z M10.75,8 C12.2687831,8 13.5,9.23121694 13.5,10.75 C13.5,12.2687831 12.2687831,13.5 10.75,13.5 C9.23121694,13.5 8,12.2687831 8,10.75 C8,9.23121694 9.23121694,8 10.75,8 Z M10.75,9.65 C10.1424868,9.65 9.65,10.1424868 9.65,10.75 C9.65,11.3575132 10.1424868,11.85 10.75,11.85 C11.3575132,11.85 11.85,11.3575132 11.85,10.75 C11.85,10.1424868 11.3575132,9.65 10.75,9.65 Z" id="Combined-Shape" fill="#F5F5F5"></path>
    </g>
</svg>