{
    "asset": {
        "generator": "Maya2glTF",
        "version": "2.0"
    },
    "scene": 0,
    "scenes": [
        {
            "nodes": [
                0
            ]
        }
    ],
    "nodes": [
        {
            "mesh": 0
        }
    ],
    "meshes": [
        {
            "primitives": [
                {
                    "attributes": {
                        "NORMAL": 1,
                        "POSITION": 2,
                        "TANGENT": 3,
                        "TEXCOORD_0": 4
                    },
                    "indices": 0,
                    "mode": 4,
                    "material": 0
                }
            ]
        }
    ],
    "accessors": [
        {
            "bufferView": 0,
            "byteOffset": 0,
            "componentType": 5123,
            "count": 46356,
            "max": [
                17624
            ],
            "min": [
                0
            ],
            "type": "SCALAR"
        },
        {
            "bufferView": 1,
            "byteOffset": 0,
            "componentType": 5126,
            "count": 17625,
            "max": [
                1.0,
                1.0,
                1.0
            ],
            "min": [
                -1.0,
                -1.0,
                -1.0
            ],
            "type": "VEC3"
        },
        {
            "bufferView": 1,
            "byteOffset": 211500,
            "componentType": 5126,
            "count": 17625,
            "max": [
                0.947458565235138,
                0.9009950160980224,
                1.18715500831604
            ],
            "min": [
                -0.9424954056739808,
                -0.9009739756584168,
                -0.8128451108932495
            ],
            "type": "VEC3"
        },
        {
            "bufferView": 2,
            "byteOffset": 0,
            "componentType": 5126,
            "count": 17625,
            "max": [
                1.0,
                1.0,
                1.0,
                1.0
            ],
            "min": [
                -1.0,
                -1.0,
                -1.0,
                -1.0
            ],
            "type": "VEC4"
        },
        {
            "bufferView": 3,
            "byteOffset": 0,
            "componentType": 5126,
            "count": 17625,
            "max": [
                0.9999759793281556,
                0.998665988445282
            ],
            "min": [
                0.002448640065267682,
                0.000553131103515625
            ],
            "type": "VEC2"
        }
    ],
    "materials": [
        {
            "pbrMetallicRoughness": {
                "baseColorTexture": {
                    "index": 0
                },
                "metallicFactor": 1.0,
                "roughnessFactor": 1.0,
                "metallicRoughnessTexture": {
                    "index": 1
                }
            },
            "emissiveFactor": [
                1.0,
                1.0,
                1.0
            ],
            "emissiveTexture": {
                "index": 3
            },
            "normalTexture": {
                "index": 2
            },
            "occlusionTexture": {
                "index": 4
            }
        }
    ],
    "textures": [
        {
            "sampler": 0,
            "source": 0
        },
        {
            "sampler": 0,
            "source": 1
        },
        {
            "sampler": 1,
            "source": 2
        },
        {
            "sampler": 0,
            "source": 3
        },
        {
            "sampler": 0,
            "source": 4
        }
    ],
    "images": [
        {
            "uri": "Default_albedo.jpg"
        },
        {
            "uri": "Default_metalRoughness.jpg"
        },
        {
            "uri": "Default_normal.jpg"
        },
        {
            "uri": "Default_emissive.jpg"
        },
        {
            "uri": "Default_AO.jpg"
        }
    ],
    "samplers": [
        {
            "magFilter": 9729,
            "minFilter": 9987,
            "wrapS": 10497,
            "wrapT": 10497
        },
        {
            "magFilter": 9729,
            "minFilter": 9987,
            "wrapS": 10497,
            "wrapT": 10497
        }
    ],
    "bufferViews": [
        {
            "buffer": 0,
            "byteOffset": 846000,
            "byteLength": 92712,
            "target": 34963
        },
        {
            "buffer": 0,
            "byteOffset": 282000,
            "byteLength": 423000,
            "byteStride": 12,
            "target": 34962
        },
        {
            "buffer": 0,
            "byteOffset": 0,
            "byteLength": 282000,
            "byteStride": 16,
            "target": 34962
        },
        {
            "buffer": 0,
            "byteOffset": 705000,
            "byteLength": 141000,
            "byteStride": 8,
            "target": 34962
        }
    ],
    "buffers": [
        {
            "byteLength": 938712,
            "uri": "DamagedHelmet.bin"
        }
    ]
}
