{
  "accessors": [
    {
      "bufferView": 0,
      "byteOffset": 0,
      "componentType": 5126,
      "count": 2549,
      "type": "VEC2",
      "max": [
        0.9884517,
        -0.0262669753
      ],
      "min": [
        0.0156782083,
        -0.968668759
      ]
    },
    {
      "bufferView": 1,
      "byteOffset": 0,
      "componentType": 5126,
      "count": 2549,
      "type": "VEC3",
      "max": [
        1.0,
        1.0,
        1.0
      ],
      "min": [
        -1.0,
        -0.99998796,
        -1.0
      ]
    },
    {
      "bufferView": 2,
      "byteOffset": 0,
      "componentType": 5126,
      "count": 2549,
      "type": "VEC4",
      "max": [
        1.0,
        0.9541486,
        1.0,
        1.0
      ],
      "min": [
        -1.0,
        -0.9542063,
        -1.0,
        -1.0
      ]
    },
    {
      "bufferView": 3,
      "byteOffset": 0,
      "componentType": 5126,
      "count": 2549,
      "type": "VEC3",
      "max": [
        0.05445001,
        0.130220339,
        0.0544500239
      ],
      "min": [
        -0.05445001,
        -0.130220339,
        -0.0544500239
      ]
    },
    {
      "bufferView": 4,
      "byteOffset": 0,
      "componentType": 5123,
      "count": 13530,
      "type": "SCALAR",
      "max": [
        2548
      ],
      "min": [
        0
      ]
    }
  ],
  "asset": {
    "generator": "glTF Tools for Unity",
    "version": "2.0"
  },
  "bufferViews": [
    {
      "buffer": 0,
      "byteOffset": 0,
      "byteLength": 20392
    },
    {
      "buffer": 0,
      "byteOffset": 20392,
      "byteLength": 30588
    },
    {
      "buffer": 0,
      "byteOffset": 50980,
      "byteLength": 40784
    },
    {
      "buffer": 0,
      "byteOffset": 91764,
      "byteLength": 30588
    },
    {
      "buffer": 0,
      "byteOffset": 122352,
      "byteLength": 27060
    }
  ],
  "buffers": [
    {
      "uri": "WaterBottle.bin",
      "byteLength": 149412
    }
  ],
  "extensionsUsed": [
    "KHR_materials_pbrSpecularGlossiness"
  ],
  "images": [
    {
      "uri": "WaterBottle_baseColor.png"
    },
    {
      "uri": "WaterBottle_roughnessMetallic.png"
    },
    {
      "uri": "WaterBottle_normal.png"
    },
    {
      "uri": "WaterBottle_emissive.png"
    },
    {
      "uri": "WaterBottle_occlusion.png"
    },
    {
      "uri": "WaterBottle_diffuse.png"
    },
    {
      "uri": "WaterBottle_specularGlossiness.png"
    }
  ],
  "meshes": [
    {
      "primitives": [
        {
          "attributes": {
            "TEXCOORD_0": 0,
            "NORMAL": 1,
            "TANGENT": 2,
            "POSITION": 3
          },
          "indices": 4,
          "material": 0,
          "mode": 4
        }
      ],
      "name": "WaterBottle"
    }
  ],
  "materials": [
    {
      "pbrMetallicRoughness": {
        "baseColorTexture": {
          "index": 0
        },
        "metallicRoughnessTexture": {
          "index": 1
        }
      },
      "normalTexture": {
        "scale": 0.5,
        "index": 2
      },
      "occlusionTexture": {
        "index": 4
      },
      "emissiveFactor": [
        1.0,
        1.0,
        1.0
      ],
      "emissiveTexture": {
        "index": 3
      },
      "name": "WaterBottle",
      "extensions": {
        "KHR_materials_pbrSpecularGlossiness": {
          "diffuseTexture": {
            "index": 5
          },
          "specularGlossinessTexture": {
            "index": 6
          }
        }
      }
    }
  ],
  "nodes": [
    {
      "children": [],
      "mesh": 0,
      "rotation": [
        0.0,
        -0.7071068,
        0.0,
        0.7071067
      ],
      "scale": [
        5.00000048,
        5.0,
        5.00000048
      ],
      "name": "WaterBottle"
    }
  ],
  "scene": 0,
  "scenes": [
    {
      "nodes": [
        0
      ]
    }
  ],
  "textures": [
    {
      "source": 0
    },
    {
      "source": 1
    },
    {
      "source": 2
    },
    {
      "source": 3
    },
    {
      "source": 4
    },
    {
      "source": 5
    },
    {
      "source": 6
    }
  ]
}