{
  "accessors": [
    {
      "bufferView": 0,
      "byteOffset": 0,
      "componentType": 5126,
      "count": 2188,
      "type": "VEC2",
      "max": [
        0.9743278,
        -0.007476747
      ],
      "min": [
        0.0319409668,
        -0.989255667
      ]
    },
    {
      "bufferView": 1,
      "byteOffset": 0,
      "componentType": 5126,
      "count": 2188,
      "type": "VEC3",
      "max": [
        0.9997695,
        0.99957794,
        0.9999255
      ],
      "min": [
        -0.9997695,
        -0.9989679,
        -0.9987249
      ]
    },
    {
      "bufferView": 2,
      "byteOffset": 0,
      "componentType": 5126,
      "count": 2188,
      "type": "VEC3",
      "max": [
        0.0690619648,
        0.2866283,
        0.3253729
      ],
      "min": [
        -0.073841624,
        -0.000878453255,
        -0.317738324
      ]
    },
    {
      "bufferView": 3,
      "byteOffset": 0,
      "componentType": 5123,
      "count": 11592,
      "type": "SCALAR",
      "max": [
        2187
      ],
      "min": [
        0
      ]
    }
  ],
  "asset": {
    "generator": "glTF Tools for Unity",
    "version": "2.0"
  },
  "bufferViews": [
    {
      "buffer": 0,
      "byteOffset": 0,
      "byteLength": 17504,
      "target": 34962
    },
    {
      "buffer": 0,
      "byteOffset": 17504,
      "byteLength": 26256,
      "target": 34962
    },
    {
      "buffer": 0,
      "byteOffset": 43760,
      "byteLength": 26256,
      "target": 34962
    },
    {
      "buffer": 0,
      "byteOffset": 70016,
      "byteLength": 23184,
      "target": 34962
    }
  ],
  "buffers": [
    {
      "uri": "BarramundiFish.bin",
      "byteLength": 93200
    }
  ],
  "extensionsUsed": [
    "KHR_materials_pbrSpecularGlossiness"
  ],
  "images": [
    {
      "uri": "BarramundiFish_baseColor.png"
    },
    {
      "uri": "BarramundiFish_metallicRoughness.png"
    },
    {
      "uri": "BarramundiFish_normal.png"
    },
    {
      "uri": "BarramundiFish_occlusion.png"
    },
    {
      "uri": "BarramundiFish_diffuse.png"
    },
    {
      "uri": "BarramundiFish_specularGlossiness.png"
    }
  ],
  "meshes": [
    {
      "primitives": [
        {
          "attributes": {
            "TEXCOORD_0": 0,
            "NORMAL": 1,
            "POSITION": 2
          },
          "indices": 3,
          "material": 0,
          "mode": 4
        }
      ],
      "name": "barramundi_fish_Hero"
    }
  ],
  "materials": [
    {
      "pbrMetallicRoughness": {
        "baseColorTexture": {
          "index": 0
        },
        "metallicRoughnessTexture": {
          "index": 1
        }
      },
      "normalTexture": {
        "index": 2
      },
      "occlusionTexture": {
        "index": 3
      },
      "name": "7288_barramundi fish_col",
      "extensions": {
        "KHR_materials_pbrSpecularGlossiness": {
          "diffuseTexture": {
            "index": 4
          },
          "specularGlossinessTexture": {
            "index": 5
          }
        }
      }
    }
  ],
  "nodes": [
    {
      "children": [],
      "mesh": 0,
      "rotation": [
        0.0,
        0.7071068,
        0.0,
        0.7071067
      ],
      "scale": [
        4.00000048,
        4.0,
        4.00000048
      ],
      "translation": [
        0.0,
        -0.586,
        0.0
      ],
      "name": "BarramundiFish"
    }
  ],
  "samplers": [
    {}
  ],
  "scene": 0,
  "scenes": [
    {
      "nodes": [
        0
      ]
    }
  ],
  "textures": [
    {
      "sampler": 0,
      "source": 0
    },
    {
      "sampler": 0,
      "source": 1
    },
    {
      "sampler": 0,
      "source": 2
    },
    {
      "sampler": 0,
      "source": 3
    },
    {
      "sampler": 0,
      "source": 4
    },
    {
      "sampler": 0,
      "source": 5
    }
  ]
}