{
  "accessors": [
    {
      "bufferView": 0,
      "componentType": 5126,
      "count": 24,
      "type": "VEC3",
      "max": [
        1.0,
        1.0,
        1.0
      ],
      "min": [
        -1.0,
        -1.0,
        -1.0
      ]
    },
    {
      "bufferView": 1,
      "componentType": 5126,
      "count": 24,
      "type": "VEC4",
      "max": [
        1.0,
        0.0,
        0.0,
        1.0
      ],
      "min": [
        1.0,
        0.0,
        0.0,
        1.0
      ]
    },
    {
      "bufferView": 2,
      "componentType": 5126,
      "count": 24,
      "type": "VEC3",
      "max": [
        0.0100000035,
        0.0100000035,
        0.01
      ],
      "min": [
        -0.0100000044,
        -0.0100000054,
        -0.01
      ]
    },
    {
      "bufferView": 3,
      "componentType": 5126,
      "count": 24,
      "type": "VEC3",
      "max": [
        0.0,
        0.0,
        0.0
      ],
      "min": [
        0.0,
        0.0,
        0.0
      ],
      "name": "thin"
    },
    {
      "bufferView": 4,
      "componentType": 5126,
      "count": 24,
      "type": "VEC3",
      "max": [
        0.0,
        0.01893253,
        0.0
      ],
      "min": [
        0.0,
        0.0,
        0.0
      ],
      "name": "thin"
    },
    {
      "bufferView": 5,
      "componentType": 5126,
      "count": 24,
      "type": "VEC3",
      "max": [
        0.0,
        0.0,
        0.0
      ],
      "min": [
        0.0,
        0.0,
        0.0
      ],
      "name": "thin"
    },
    {
      "bufferView": 6,
      "componentType": 5126,
      "count": 24,
      "type": "VEC3",
      "max": [
        0.0,
        0.6160528,
        0.07664502
      ],
      "min": [
        0.0,
        -0.3839472,
        -0.923355
      ],
      "name": "angle"
    },
    {
      "bufferView": 7,
      "componentType": 5126,
      "count": 24,
      "type": "VEC3",
      "max": [
        0.0,
        0.0198908355,
        0.0
      ],
      "min": [
        0.0,
        0.0,
        0.0
      ],
      "name": "angle"
    },
    {
      "bufferView": 8,
      "componentType": 5126,
      "count": 24,
      "type": "VEC3",
      "max": [
        0.0,
        0.0,
        0.0
      ],
      "min": [
        0.0,
        0.0,
        0.0
      ],
      "name": "angle"
    },
    {
      "bufferView": 9,
      "componentType": 5123,
      "count": 36,
      "type": "SCALAR",
      "max": [
        23
      ],
      "min": [
        0
      ]
    },
    {
      "bufferView": 10,
      "componentType": 5126,
      "count": 61,
      "type": "SCALAR",
      "max": [
        1.9999994
      ],
      "min": [
        0.0
      ]
    },
    {
      "bufferView": 11,
      "componentType": 5126,
      "count": 122,
      "type": "SCALAR",
      "max": [
        50.0
      ],
      "min": [
        0.0
      ]
    }
  ],
  "animations": [
    {
      "channels": [
        {
          "sampler": 0,
          "target": {
            "node": 0,
            "path": "weights"
          }
        }
      ],
      "samplers": [
        {
          "input": 10,
          "interpolation": "LINEAR",
          "output": 11
        }
      ],
      "name": "Morph"
    }
  ],
  "asset": {
    "generator": "glTF Tools for Unity",
    "version": "2.0"
  },
  "bufferViews": [
    {
      "buffer": 0,
      "byteLength": 288
    },
    {
      "buffer": 0,
      "byteOffset": 288,
      "byteLength": 384
    },
    {
      "buffer": 0,
      "byteOffset": 672,
      "byteLength": 288
    },
    {
      "buffer": 0,
      "byteOffset": 960,
      "byteLength": 288
    },
    {
      "buffer": 0,
      "byteOffset": 1248,
      "byteLength": 288
    },
    {
      "buffer": 0,
      "byteOffset": 1536,
      "byteLength": 288
    },
    {
      "buffer": 0,
      "byteOffset": 1824,
      "byteLength": 288
    },
    {
      "buffer": 0,
      "byteOffset": 2112,
      "byteLength": 288
    },
    {
      "buffer": 0,
      "byteOffset": 2400,
      "byteLength": 288
    },
    {
      "buffer": 0,
      "byteOffset": 2688,
      "byteLength": 72
    },
    {
      "buffer": 0,
      "byteOffset": 2760,
      "byteLength": 244
    },
    {
      "buffer": 0,
      "byteOffset": 3004,
      "byteLength": 488
    }
  ],
  "buffers": [
    {
      "uri": "Morph.bin",
      "byteLength": 3492
    }
  ],
  "meshes": [
    {
      "primitives": [
        {
          "attributes": {
            "NORMAL": 0,
            "TANGENT": 1,
            "POSITION": 2
          },
          "indices": 9,
          "material": 0,
          "targets": [
            {
              "NORMAL": 3,
              "POSITION": 4,
              "TANGENT": 5
            },
            {
              "NORMAL": 6,
              "POSITION": 7,
              "TANGENT": 8
            }
          ]
        }
      ],
      "weights": [
        0.0,
        0.0
      ],
      "name": "Cube"
    }
  ],
  "materials": [
    {
      "pbrMetallicRoughness": {
        "metallicFactor": 0.0
      },
      "name": "Material"
    }
  ],
  "nodes": [
    {
      "children": [],
      "mesh": 0,
      "rotation": [
        -0.7071068,
        0.0,
        0.0,
        -0.7071067
      ],
      "scale": [
        100.0,
        100.0,
        100.0
      ],
      "name": "Cube"
    },
    {
      "children": [
        0
      ],
      "rotation": [
        0.0,
        0.0,
        0.0,
        -1.0
      ],
      "name": "Morph"
    }
  ],
  "scene": 0,
  "scenes": [
    {
      "nodes": [
        1
      ]
    }
  ]
}