<?xml version="1.0" encoding="UTF-8"?>
<svg width="50px" height="50px" viewBox="0 0 50 50" version="1.1" xmlns="http://www.w3.org/2000/svg" xmlns:xlink="http://www.w3.org/1999/xlink">
    <title>Icon/Animation</title>
    <defs>
        <filter id="filter-1">
            <feColorMatrix in="SourceGraphic" type="matrix" values="0 0 0 0 0.529412 0 0 0 0 0.772549 0 0 0 0 0.250980 0 0 0 1.000000 0"></feColorMatrix>
        </filter>
    </defs>
    <g id="Developer-" stroke="none" stroke-width="1" fill="none" fill-rule="evenodd">
        <g id="Apple-TV" transform="translate(-518.000000, -450.000000)">
            <g id="Animation" transform="translate(518.000000, 450.000000)">
                <rect id="Rectangle" x="0" y="0" width="50" height="50"></rect>
                <g filter="url(#filter-1)" id="Icon">
                    <g transform="translate(4.166667, 6.666667)">
                        <path d="M6.33484142,12.1271844 C9.03297338,4.49012899 16.4569108,-0.441752565 24.5427485,0.03127944 C32.6285862,0.504311445 39.4268068,6.2682077 41.2160259,14.167779 C43.005245,22.0673502 39.3540771,30.1979883 32.2611921,34.1089361 C25.1683071,38.019884 16.3438188,36.7682014 10.6578881,31.0774938 L10.6578881,31.0774938 L3.333,24.18 L3.33333333,30 C3.33333333,30.8720286 2.66362077,31.5876374 1.81047305,31.660549 L1.66666667,31.6666667 C0.746192084,31.6666667 0,30.9204746 0,30 L0,30 L0,20 C0,19.0795254 0.746192084,18.3333333 1.66666667,18.3333333 L1.66666667,18.3333333 L11.6666667,18.3333333 C12.5871412,18.3333333 13.3333333,19.0795254 13.3333333,20 C13.3333333,20.9204746 12.5871412,21.6666667 11.6666667,21.6666667 L11.6666667,21.6666667 L5.968,21.666 L13.190791,28.4682019 C17.6894114,32.9696651 24.5794574,34.0159513 30.1998192,31.0877618 L30.5051031,30.9240976 C36.1794112,27.7953394 39.1003455,21.2908289 37.6689702,14.9711719 C36.2375949,8.65151491 30.7990184,4.04039791 24.3303483,3.6619723 C17.8616781,3.2835467 11.9225282,7.22905194 9.76402259,13.3386963 C9.42947282,14.2856385 8.3906183,14.7820807 7.44367607,14.4475309 C6.49673383,14.1129811 6.00029165,13.0741266 6.33484142,12.1271844 Z" id="Combined-Shape" fill="#000000" fill-rule="nonzero"></path>
                        <path d="M18.3387496,11.3720536 C18.3387496,10.0408946 19.8223254,9.24690896 20.9299166,9.9853031 L20.9299166,9.9853031 L30.9299166,16.6519698 C31.9194717,17.3116732 31.9194717,18.7657673 30.9299166,19.4254708 L30.9299166,19.4254708 L20.9299166,26.0921374 C19.8223254,26.8305316 18.3387496,26.0365459 18.3387496,24.7053869 L18.3387496,24.7053869 Z M21.672083,14.7025846 L21.672083,21.8075276 L27.0007902,18.2550561 L21.672083,14.7025846 Z" id="Combined-Shape" fill="#000000" fill-rule="nonzero"></path>
                    </g>
                </g>
            </g>
        </g>
    </g>
</svg>