<?xml version="1.0" encoding="UTF-8"?>
<svg width="50px" height="50px" viewBox="0 0 50 50" version="1.1" xmlns="http://www.w3.org/2000/svg" xmlns:xlink="http://www.w3.org/1999/xlink">
    <title>Icon/capture</title>
    <defs>
        <path d="M15,8.33333333 L10,8.33333333 C7.23857625,8.33333333 5,10.5719096 5,13.3333333 L5,18.3333333 C5,19.2538079 5.74619208,20 6.66666667,20 C7.58714125,20 8.33333333,19.2538079 8.33333333,18.3333333 L8.33333333,13.3333333 C8.33333333,12.4128588 9.07952542,11.6666667 10,11.6666667 L15,11.6666667 C15.9204746,11.6666667 16.6666667,10.9204746 16.6666667,10 C16.6666667,9.07952542 15.9204746,8.33333333 15,8.33333333 Z M45,18.3333333 L45,13.3333333 C45,10.5719096 42.7614237,8.33333333 40,8.33333333 L35,8.33333333 C34.0795254,8.33333333 33.3333333,9.07952542 33.3333333,10 C33.3333333,10.9204746 34.0795254,11.6666667 35,11.6666667 L40,11.6666667 C40.9204746,11.6666667 41.6666667,12.4128588 41.6666667,13.3333333 L41.6666667,18.3333333 C41.6666667,19.2538079 42.4128588,20 43.3333333,20 C44.2538079,20 45,19.2538079 45,18.3333333 Z M35,41.6666667 L40,41.6666667 C42.7614237,41.6666667 45,39.4280904 45,36.6666667 L45,31.6666667 C45,30.7461921 44.2538079,30 43.3333333,30 C42.4128588,30 41.6666667,30.7461921 41.6666667,31.6666667 L41.6666667,36.6666667 C41.6666667,37.5871412 40.9204746,38.3333333 40,38.3333333 L35,38.3333333 C34.0795254,38.3333333 33.3333333,39.0795254 33.3333333,40 C33.3333333,40.9204746 34.0795254,41.6666667 35,41.6666667 Z M5,31.6666667 L5,36.6666667 C5,39.4280904 7.23857625,41.6666667 10,41.6666667 L15,41.6666667 C15.9204746,41.6666667 16.6666667,40.9204746 16.6666667,40 C16.6666667,39.0795254 15.9204746,38.3333333 15,38.3333333 L10,38.3333333 C9.07952542,38.3333333 8.33333333,37.5871412 8.33333333,36.6666667 L8.33333333,31.6666667 C8.33333333,30.7461921 7.58714125,30 6.66666667,30 C5.74619208,30 5,30.7461921 5,31.6666667 Z" id="path-1"></path>
    </defs>
    <g id="Developer-" stroke="none" stroke-width="1" fill="none" fill-rule="evenodd">
        <g id="Apple-TV" transform="translate(-388.000000, -536.000000)">
            <g id="Capture" transform="translate(388.000000, 536.000000)">
                <rect id="Rectangle" x="0" y="0" width="50" height="50"></rect>
                <path d="M25.6666667,16.6666667 C26.2189514,16.6666667 26.6666667,17.1143819 26.6666667,17.6666667 L26.6666667,23.3326667 L32.3333333,23.3333333 C32.8856181,23.3333333 33.3333333,23.7810486 33.3333333,24.3333333 L33.3333333,25.6666667 C33.3333333,26.2189514 32.8856181,26.6666667 32.3333333,26.6666667 L26.6666667,26.6666667 L26.6666667,32.3333333 C26.6666667,32.8856181 26.2189514,33.3333333 25.6666667,33.3333333 L24.3333333,33.3333333 C23.7810486,33.3333333 23.3333333,32.8856181 23.3333333,32.3333333 L23.3326667,26.6666667 L17.6666667,26.6666667 C17.1143819,26.6666667 16.6666667,26.2189514 16.6666667,25.6666667 L16.6666667,24.3333333 C16.6666667,23.7810486 17.1143819,23.3333333 17.6666667,23.3333333 L23.3326667,23.3326667 L23.3333333,17.6666667 C23.3333333,17.1143819 23.7810486,16.6666667 24.3333333,16.6666667 L25.6666667,16.6666667 Z" id="Combined-Shape" fill="#87C540"></path>
                <mask id="mask-2" fill="white">
                    <use xlink:href="#path-1"></use>
                </mask>
                <use id="Shape" fill="#87C540" xlink:href="#path-1"></use>
            </g>
        </g>
    </g>
</svg>