<?xml version="1.0" encoding="UTF-8"?>
<svg width="50px" height="50px" viewBox="0 0 50 50" version="1.1" xmlns="http://www.w3.org/2000/svg" xmlns:xlink="http://www.w3.org/1999/xlink">
    <title>Icon/developer</title>
    <defs>
        <filter id="filter-1">
            <feColorMatrix in="SourceGraphic" type="matrix" values="0 0 0 0 0.529412 0 0 0 0 0.772549 0 0 0 0 0.250980 0 0 0 1.000000 0"></feColorMatrix>
        </filter>
    </defs>
    <g id="Developer-" stroke="none" stroke-width="1" fill="none" fill-rule="evenodd">
        <g id="Apple-TV" transform="translate(-672.000000, -334.000000)">
            <g id="Icon/developer" transform="translate(672.000000, 334.000000)">
                <g id="Group">
                    <rect id="Rectangle" x="0" y="0" width="50" height="50"></rect>
                </g>
                <g filter="url(#filter-1)" id="Filter-2">
                    <g transform="translate(5.133333, 6.666667)">
                        <path d="M2.035,6.78333333 L4.51916667,6.78333333 C5.12954427,8.95382443 7.10906767,10.4534573 9.36375,10.4534573 C11.6184323,10.4534573 13.5979557,8.95382443 14.2083333,6.78333333 L37.785,6.78333333 C38.5443915,6.78333333 39.16,6.16772486 39.16,5.40833333 C39.16,4.6489418 38.5443915,4.03333333 37.785,4.03333333 L14.2175,4.03333333 C13.6071224,1.86284224 11.627599,0.363209411 9.37291667,0.363209411 C7.11823433,0.363209411 5.13871093,1.86284224 4.52833333,4.03333333 L2.035,4.03333333 C1.27560847,4.03333333 0.66,4.6489418 0.66,5.40833333 C0.66,6.16772486 1.27560847,6.78333333 2.035,6.78333333 Z M9.36833333,3.11666667 C10.6339859,3.11666667 11.66,4.14268078 11.66,5.40833333 C11.66,6.67398589 10.6339859,7.7 9.36833333,7.7 C8.10268078,7.7 7.07666667,6.67398589 7.07666667,5.40833333 C7.07666667,4.14268078 8.10268078,3.11666667 9.36833333,3.11666667 Z" id="Shape" fill="#87C540"></path>
                        <path d="M37.785,16.8666667 L24.6033333,16.8666667 C23.8531961,14.9282276 21.9885216,13.6503931 19.91,13.6503931 C17.8314784,13.6503931 15.9668039,14.9282276 15.2166667,16.8666667 L2.035,16.8666667 C1.27560847,16.8666667 0.66,17.4822751 0.66,18.2416667 C0.66,19.0010582 1.27560847,19.6166667 2.035,19.6166667 L14.96,19.6166667 C15.4087024,21.9994222 17.4899478,23.7253238 19.9145833,23.7253238 C22.3392189,23.7253238 24.4204642,21.9994222 24.8691667,19.6166667 L37.785,19.6166667 C38.5443915,19.6166667 39.16,19.0010582 39.16,18.2416667 C39.16,17.4822751 38.5443915,16.8666667 37.785,16.8666667 Z M19.91,20.9916667 C18.6443474,20.9916667 17.6183333,19.9656526 17.6183333,18.7 C17.6183333,17.4343474 18.6443474,16.4083333 19.91,16.4083333 C21.1756526,16.4083333 22.2016667,17.4343474 22.2016667,18.7 C22.2016667,19.9656526 21.1756526,20.9916667 19.91,20.9916667 Z" id="Shape" fill="#87C540"></path>
                        <path d="M37.785,29.7 L35.3008333,29.7 C34.6904557,27.5295089 32.7109323,26.0298761 30.45625,26.0298761 C28.2015677,26.0298761 26.2220443,27.5295089 25.6116667,29.7 L2.035,29.7 C1.27560847,29.7 0.66,30.3156085 0.66,31.075 C0.66,31.8343915 1.27560847,32.45 2.035,32.45 L25.6025,32.45 C26.2128776,34.6204911 28.192401,36.1201239 30.4470833,36.1201239 C32.7017657,36.1201239 34.6812891,34.6204911 35.2916667,32.45 L37.785,32.45 C38.5443915,32.45 39.16,31.8343915 39.16,31.075 C39.16,30.3156085 38.5443915,29.7 37.785,29.7 Z M30.4516667,33.3666667 C29.1860141,33.3666667 28.16,32.3406526 28.16,31.075 C28.16,29.8093474 29.1860141,28.7833333 30.4516667,28.7833333 C31.7173192,28.7833333 32.7433333,29.8093474 32.7433333,31.075 C32.7433333,32.3406526 31.7173192,33.3666667 30.4516667,33.3666667 Z" id="Shape" fill="#87C540"></path>
                    </g>
                </g>
            </g>
        </g>
    </g>
</svg>