<?xml version="1.0" encoding="UTF-8"?>
<svg width="50px" height="50px" viewBox="0 0 50 50" version="1.1" xmlns="http://www.w3.org/2000/svg" xmlns:xlink="http://www.w3.org/1999/xlink">
    <title>Icon/Display</title>
    <g id="Developer-" stroke="none" stroke-width="1" fill="none" fill-rule="evenodd">
        <g id="Apple-TV" transform="translate(-471.000000, -546.000000)">
            <g id="Icon/Display" transform="translate(471.000000, 546.000000)">
                <rect id="Rectangle" x="0" y="0" width="50" height="50"></rect>
                <path d="M37.8333333,6.66666667 C40.8708995,6.66666667 43.3333333,9.12910054 43.3333333,12.1666667 L43.3333333,37.8333333 C43.3333333,40.8708995 40.8708995,43.3333333 37.8333333,43.3333333 L12.1666667,43.3333333 C9.12910054,43.3333333 6.66666667,40.8708995 6.66666667,37.8333333 L6.66666667,12.1666667 C6.66666667,9.12910054 9.12910054,6.66666667 12.1666667,6.66666667 L37.8333333,6.66666667 Z M34.65625,23.3333333 L26.96875,31.9566185 C26.6156191,32.3520889 26.0780704,32.5116387 25.5763916,32.3803852 L25.440625,32.3373375 L18.79375,29.8436281 L10,38.7143807 L10,40 L40,40 L40,26.4361931 L34.65625,23.3333333 Z M40,10 L10,10 L10,33.749061 L17.4507351,26.191789 C17.8031979,25.8325913 18.3137363,25.6924253 18.7912897,25.8142198 L18.933375,25.8586599 L25.5020332,28.3333333 L33.3187363,19.5767965 C33.7300429,19.1123878 34.3862146,18.9766745 34.9386401,19.2266885 L35.0641226,19.2912572 L40,22.1466497 L40,10 Z M17.9166667,13.3333333 C20.4479718,13.3333333 22.5,15.3853616 22.5,17.9166667 C22.5,20.4479718 20.4479718,22.5 17.9166667,22.5 C15.3853616,22.5 13.3333333,20.4479718 13.3333333,17.9166667 C13.3333333,15.3853616 15.3853616,13.3333333 17.9166667,13.3333333 Z M17.9166667,16.0833333 C16.9041446,16.0833333 16.0833333,16.9041446 16.0833333,17.9166667 C16.0833333,18.9291887 16.9041446,19.75 17.9166667,19.75 C18.9291887,19.75 19.75,18.9291887 19.75,17.9166667 C19.75,16.9041446 18.9291887,16.0833333 17.9166667,16.0833333 Z" id="Combined-Shape" fill="#87C540"></path>
            </g>
        </g>
    </g>
</svg>