<?xml version="1.0" encoding="UTF-8"?>
<svg width="16px" height="16px" viewBox="0 0 16 16" version="1.1" xmlns="http://www.w3.org/2000/svg" xmlns:xlink="http://www.w3.org/1999/xlink">
    <title>Icon/ collapse </title>
    <g id="Icon/-collapse-" stroke="none" stroke-width="1" fill="none" fill-rule="evenodd">
        <path d="M11.9569091,9.26 C12.1502088,9.26 12.3069091,9.41670034 12.3069091,9.61 C12.3069091,9.80329966 12.1502088,9.96 11.9569091,9.96 L11.9569091,9.96 L10.4503867,9.96 L12.8928741,12.4030718 C13.0295576,12.5397553 13.0295576,12.761363 12.8928741,12.8980465 C12.7561906,13.03473 12.5345828,13.03473 12.3978993,12.8980465 L12.3978993,12.8980465 L9.95038672,10.45 L9.95,11.9218629 L9.94288924,11.9924001 C9.91025305,12.1518892 9.7691372,12.2718629 9.6,12.2718629 C9.40670034,12.2718629 9.25,12.1151626 9.25,11.9218629 L9.25,11.9218629 L9.25,9.62186292 L9.25558877,9.55969318 L9.25558877,9.55969318 L9.27201993,9.50141158 L9.27201993,9.50141158 C9.27737366,9.48569088 9.28063313,9.47822597 9.28353379,9.47094699 C9.30056105,9.43157305 9.32516319,9.39468963 9.35734019,9.36251263 C9.4339035,9.28594931 9.53711336,9.25227297 9.63711763,9.26148359 L9.63711763,9.26148359 L9.65690909,9.26 Z M6.33847763,9.26 L6.35826909,9.26148359 C6.45827336,9.25227297 6.56148322,9.28594931 6.63804653,9.36251263 C6.67022353,9.39468963 6.69482567,9.43157305 6.71185293,9.47094699 C6.71475359,9.47822597 6.71801306,9.48569088 6.7210145,9.49328594 L6.72336679,9.50141158 L6.73979795,9.55969318 L6.73979795,9.55969318 L6.74538672,9.62186292 L6.74538672,11.9218629 C6.74538672,12.1151626 6.58868638,12.2718629 6.39538672,12.2718629 C6.22624952,12.2718629 6.08513367,12.1518892 6.05249748,11.9924001 L6.04538672,11.9218629 L6.045,10.45 L3.59748737,12.8980465 C3.46080387,13.03473 3.23919613,13.03473 3.10251263,12.8980465 C2.96582912,12.761363 2.96582912,12.5397553 3.10251263,12.4030718 L5.545,9.96 L4.03847763,9.96 C3.84517797,9.96 3.68847763,9.80329966 3.68847763,9.61 C3.68847763,9.41670034 3.84517797,9.26 4.03847763,9.26 L6.33847763,9.26 Z M12.8928741,3.10251263 C13.0295576,3.23919613 13.0295576,3.46080387 12.8928741,3.59748737 L10.4503867,6.04055916 L11.9569091,6.04055916 C12.1502088,6.04055916 12.3069091,6.1972595 12.3069091,6.39055916 C12.3069091,6.58385882 12.1502088,6.74055916 11.9569091,6.74055916 L9.65690909,6.74055916 L9.63711763,6.73907557 C9.53711336,6.74828619 9.4339035,6.71460985 9.35734019,6.63804653 C9.32516319,6.60586953 9.30056105,6.56898611 9.28353379,6.52961217 C9.28063313,6.52233319 9.27737366,6.51486828 9.27437222,6.50727322 L9.27201993,6.49914758 L9.25558877,6.44086598 L9.25558877,6.44086598 L9.25,6.37869624 L9.25,4.07869624 C9.25,3.88539658 9.40670034,3.72869624 9.6,3.72869624 C9.7691372,3.72869624 9.91025305,3.84866994 9.94288924,4.00815904 L9.95,4.07869624 L9.95038672,5.55055916 L12.3978993,3.10251263 C12.5345828,2.96582912 12.7561906,2.96582912 12.8928741,3.10251263 Z M3.10251263,3.10251263 C3.23919613,2.96582912 3.46080387,2.96582912 3.59748737,3.10251263 L3.59748737,3.10251263 L6.045,5.55055916 L6.04538672,4.07869624 L6.05249748,4.00815904 C6.08513367,3.84866994 6.22624952,3.72869624 6.39538672,3.72869624 C6.58868638,3.72869624 6.74538672,3.88539658 6.74538672,4.07869624 L6.74538672,4.07869624 L6.74538672,6.37869624 L6.73979795,6.44086598 L6.73979795,6.44086598 L6.72336679,6.49914758 L6.72336679,6.49914758 L6.7210145,6.50727322 L6.71185293,6.52961217 C6.69482567,6.56898611 6.67022353,6.60586953 6.63804653,6.63804653 C6.56148322,6.71460985 6.45827336,6.74828619 6.35826909,6.73907557 L6.35826909,6.73907557 L6.33847763,6.74055916 L4.03847763,6.74055916 C3.84517797,6.74055916 3.68847763,6.58385882 3.68847763,6.39055916 C3.68847763,6.1972595 3.84517797,6.04055916 4.03847763,6.04055916 L4.03847763,6.04055916 L5.545,6.04055916 L3.10251263,3.59748737 C2.96582912,3.46080387 2.96582912,3.23919613 3.10251263,3.10251263 Z" id="Combined-Shape" fill="#F4F4F4"></path>
    </g>
</svg>