<?xml version="1.0" encoding="UTF-8"?>
<svg width="16px" height="16px" viewBox="0 0 16 16" version="1.1" xmlns="http://www.w3.org/2000/svg" xmlns:xlink="http://www.w3.org/1999/xlink">
    <title>Icon/ Expand</title>
    <g id="Icon/-Expand" stroke="none" stroke-width="1" fill="none" fill-rule="evenodd">
        <path d="M9.35251263,9.36251263 C9.48919613,9.22582912 9.71080387,9.22582912 9.84748737,9.36251263 L9.84748737,9.36251263 L12.295,11.8105592 L12.2953867,10.3386962 L12.3024975,10.268159 C12.3351337,10.1086699 12.4762495,9.98869624 12.6453867,9.98869624 C12.8386864,9.98869624 12.9953867,10.1453966 12.9953867,10.3386962 L12.9953867,10.3386962 L12.9953867,12.6386962 L12.9897979,12.700866 L12.9897979,12.700866 L12.9733668,12.7591476 L12.9733668,12.7591476 L12.9710145,12.7672732 L12.9618529,12.7896122 C12.9448257,12.8289861 12.9202235,12.8658695 12.8880465,12.8980465 C12.8114832,12.9746098 12.7082734,13.0082862 12.6082691,12.9990756 L12.6082691,12.9990756 L12.5884776,13.0005592 L10.2884776,13.0005592 C10.095178,13.0005592 9.93847763,12.8438588 9.93847763,12.6505592 C9.93847763,12.4572595 10.095178,12.3005592 10.2884776,12.3005592 L10.2884776,12.3005592 L11.795,12.3005592 L9.35251263,9.85748737 C9.21582912,9.72080387 9.21582912,9.49919613 9.35251263,9.36251263 Z M6.64287409,9.36251263 C6.7795576,9.49919613 6.7795576,9.72080387 6.64287409,9.85748737 L4.20038672,12.3005592 L5.70690909,12.3005592 C5.90020875,12.3005592 6.05690909,12.4572595 6.05690909,12.6505592 C6.05690909,12.8438588 5.90020875,13.0005592 5.70690909,13.0005592 L3.40690909,13.0005592 L3.38711763,12.9990756 C3.28711336,13.0082862 3.1839035,12.9746098 3.10734019,12.8980465 C3.07516319,12.8658695 3.05056105,12.8289861 3.03353379,12.7896122 C3.03063313,12.7823332 3.02737366,12.7748683 3.02437222,12.7672732 L3.02201993,12.7591476 L3.00558877,12.700866 L3.00558877,12.700866 L3,12.6386962 L3,10.3386962 C3,10.1453966 3.15670034,9.98869624 3.35,9.98869624 C3.5191372,9.98869624 3.66025305,10.1086699 3.69288924,10.268159 L3.7,10.3386962 L3.70038672,11.8105592 L6.14789935,9.36251263 C6.28458285,9.22582912 6.50619059,9.22582912 6.64287409,9.36251263 Z M12.5884776,3 L12.6082691,3.00148359 C12.7082734,2.99227297 12.8114832,3.02594931 12.8880465,3.10251263 C12.9202235,3.13468963 12.9448257,3.17157305 12.9618529,3.21094699 C12.9647536,3.21822597 12.9680131,3.22569088 12.9710145,3.23328594 L12.9733668,3.24141158 L12.9897979,3.29969318 L12.9897979,3.29969318 L12.9953867,3.36186292 L12.9953867,5.66186292 C12.9953867,5.85516258 12.8386864,6.01186292 12.6453867,6.01186292 C12.4762495,6.01186292 12.3351337,5.89188922 12.3024975,5.73240012 L12.2953867,5.66186292 L12.295,4.19 L9.84748737,6.63804653 C9.71080387,6.77473003 9.48919613,6.77473003 9.35251263,6.63804653 C9.21582912,6.50136303 9.21582912,6.27975529 9.35251263,6.14307179 L11.795,3.7 L10.2884776,3.7 C10.095178,3.7 9.93847763,3.54329966 9.93847763,3.35 C9.93847763,3.15670034 10.095178,3 10.2884776,3 L12.5884776,3 Z M5.70690909,3 C5.90020875,3 6.05690909,3.15670034 6.05690909,3.35 C6.05690909,3.54329966 5.90020875,3.7 5.70690909,3.7 L5.70690909,3.7 L4.20038672,3.7 L6.64287409,6.14307179 C6.7795576,6.27975529 6.7795576,6.50136303 6.64287409,6.63804653 C6.50619059,6.77473003 6.28458285,6.77473003 6.14789935,6.63804653 L6.14789935,6.63804653 L3.70038672,4.19 L3.7,5.66186292 L3.69288924,5.73240012 C3.66025305,5.89188922 3.5191372,6.01186292 3.35,6.01186292 C3.15670034,6.01186292 3,5.85516258 3,5.66186292 L3,5.66186292 L3,3.36186292 L3.00558877,3.29969318 L3.00558877,3.29969318 L3.02201993,3.24141158 L3.02201993,3.24141158 C3.02737366,3.22569088 3.03063313,3.21822597 3.03353379,3.21094699 C3.05056105,3.17157305 3.07516319,3.13468963 3.10734019,3.10251263 C3.1839035,3.02594931 3.28711336,2.99227297 3.38711763,3.00148359 L3.38711763,3.00148359 L3.40690909,3 Z" id="Combined-Shape" fill="#F4F4F4"></path>
    </g>
</svg>