<?xml version="1.0" encoding="UTF-8"?>
<svg width="50px" height="50px" viewBox="0 0 50 50" version="1.1" xmlns="http://www.w3.org/2000/svg" xmlns:xlink="http://www.w3.org/1999/xlink">
    <title>Ico</title>
    <g id="Developer-" stroke="none" stroke-width="1" fill="none" fill-rule="evenodd">
        <g id="Apple-TV" transform="translate(-507.000000, -389.000000)">
            <g id="Ico" transform="translate(507.000000, 389.000000)">
                <rect id="Rectangle" x="0" y="0" width="50" height="50"></rect>
                <path d="M43.3334002,30.8333333 C43.3334002,31.3974595 43.0480355,31.9232972 42.5750475,32.2307394 L25.9083808,43.0640727 C25.3560513,43.4230869 24.6440825,43.4230869 24.091753,43.0640727 L7.4250863,32.2307394 C6.95209829,31.9232972 6.66673356,31.3974595 6.66673356,30.8333333 L6.66673356,19.1666667 L6.66687865,19.1540442 C6.66243523,18.8168205 6.75998763,18.4750904 6.96815679,18.1777059 C7.15543957,17.910159 7.40709316,17.7144517 7.68754406,17.5968615 L24.091753,6.93592731 C24.6440825,6.57691312 25.3560513,6.57691312 25.9083808,6.93592731 L42.3128759,17.5968615 C42.5933268,17.7144517 42.8449804,17.910159 43.0322632,18.1777059 C43.242291,18.4777456 43.3397179,18.8229263 43.3333979,19.1630758 L43.3333975,19.1636305 L43.3334002,30.8333333 Z M9.99966667,22.2296667 L10.0000669,29.9288566 L23.3326667,38.5946667 L23.3335433,31.0327501 L9.99966667,22.2296667 Z M39.9996667,22.2296667 L26.6668767,31.0327501 L26.6666667,38.5946667 L40.0000669,29.9288566 L39.9996667,22.2296667 Z M25.0000669,10.3211434 L11.4066667,19.1556667 L25.0000669,28.065239 L38.5926667,19.1556667 L25.0000669,10.3211434 Z" id="Combined-Shape" fill="#87C540"></path>
            </g>
        </g>
    </g>
</svg>