<?xml version="1.0" encoding="UTF-8"?>
<svg width="30px" height="30px" viewBox="0 0 30 30" version="1.1" xmlns="http://www.w3.org/2000/svg" xmlns:xlink="http://www.w3.org/1999/xlink">
    <title>Icon/model</title>
    <g id="Developer-" stroke="none" stroke-width="1" fill="none" fill-rule="evenodd">
        <g id="Apple-TV" transform="translate(-193.000000, -123.000000)">
            <g id="Ico" transform="translate(193.000000, 123.000000)">
                <rect id="Rectangle" x="0" y="0" width="30" height="30"></rect>
                <path d="M15.5450285,4.16155638 L25.3944926,10.5609835 C25.5600429,10.6318313 25.7084967,10.7482503 25.8193579,10.9066235 C25.9434423,11.0838869 26.0020222,11.2874106 26.0001693,11.488455 C26.0000194,11.4925563 26.0000401,11.4962768 26.0000401,11.5 L26.0000401,18.5 C26.0000401,18.8384757 25.8288213,19.1539783 25.5450285,19.3384436 L15.5450285,25.8384436 C15.2136308,26.0538521 14.7864495,26.0538521 14.4550518,25.8384436 L4.45505178,19.3384436 C4.17125898,19.1539783 4.00004013,18.8384757 4.00004013,18.5 L4.00004013,11.5 L4.00009247,11.4894586 C3.99803507,11.288088 4.05660325,11.0841818 4.18089408,10.9066235 C4.29242586,10.7472924 4.4420063,10.6304246 4.60876521,10.559703 L14.4550518,4.16155638 C14.7864495,3.94614787 15.2136308,3.94614787 15.5450285,4.16155638 Z M6,13.338 L6.00004013,17.957314 L14,23.157 L14.000126,18.6196501 L6,13.338 Z M24,13.337 L16.000126,18.6196501 L16,23.157 L24.0000401,17.957314 L24,13.337 Z M15.0000401,6.19268604 L6.844,11.493 L15.0000401,16.8391434 L23.155,11.493 L15.0000401,6.19268604 Z" id="Combined-Shape" fill="#F5F5F5"></path>
            </g>
        </g>
    </g>
</svg>