<svg width="50" height="50" viewBox="0 0 50 50" fill="none" xmlns="http://www.w3.org/2000/svg">
<path d="M25.0506 21.8988C26.8497 21.8988 28.5326 22.239 30.099 22.9192C31.6743 23.5905 33.0618 24.526 34.2612 25.7254C35.4606 26.9247 36.3961 28.3124 37.0674 29.8876C37.7476 31.4629 38.0877 33.1504 38.0878 34.9494C38.0878 36.7395 37.7476 38.427 37.0674 40.0112C36.3961 41.5865 35.4606 42.9741 34.2612 44.1735C33.0618 45.3729 31.6743 46.3083 30.099 46.9796C28.5326 47.6599 26.8498 48 25.0506 48C23.2515 48 21.5642 47.6599 19.9888 46.9796C18.4135 46.3083 17.026 45.3729 15.8266 44.1735C14.6272 42.9741 13.6872 41.5865 13.007 40.0112C12.3358 38.427 12 36.7395 12 34.9494C12 33.1504 12.3357 31.4629 13.007 29.8876C13.6873 28.3124 14.6272 26.9247 15.8266 25.7254C17.026 24.526 18.4135 23.5905 19.9888 22.9192C21.5641 22.239 23.2515 21.8988 25.0506 21.8988ZM29.1949 28.2302C28.8791 28.2302 28.5824 28.2899 28.3058 28.4092C28.0293 28.5269 27.7854 28.6912 27.5748 28.9015C27.3643 29.1119 27.199 29.3562 27.0795 29.6325C26.9616 29.9091 26.902 30.2058 26.902 30.5216C26.902 30.836 26.9616 31.1326 27.0795 31.4108C27.199 31.6872 27.3642 31.9313 27.5748 32.1418C27.7854 32.3521 28.0293 32.5163 28.3058 32.6341C28.5825 32.7534 28.879 32.8131 29.1949 32.8131C29.5108 32.8131 29.8061 32.7534 30.0811 32.6341C30.3576 32.5163 30.6015 32.3521 30.8121 32.1418C31.0228 31.9312 31.188 31.6874 31.3059 31.4108C31.4254 31.1326 31.4849 30.836 31.4849 30.5216C31.4849 30.2058 31.4254 29.9091 31.3059 29.6325C31.188 29.3561 31.0227 29.112 30.8121 28.9015C30.6015 28.6912 30.3576 28.5269 30.0811 28.4092C29.8061 28.2899 29.5107 28.2302 29.1949 28.2302Z" fill="#87C540"/>
<path d="M25.0506 10.3708C24.7305 10.3708 24.456 10.261 24.2273 10.0414C24.0077 9.82188 23.8979 9.552 23.8979 9.23181V3.1527C23.8979 2.8325 24.0077 2.56263 24.2273 2.34306C24.456 2.11435 24.7305 2 25.0506 2C25.38 2 25.6499 2.11435 25.8603 2.34306C26.0798 2.56263 26.1896 2.8325 26.1896 3.1527V9.23181C26.1896 9.552 26.0798 9.82188 25.8603 10.0414C25.6499 10.261 25.38 10.3708 25.0506 10.3708Z" fill="#87C540"/>
<path d="M33.4784 18.8331C33.1399 18.8331 32.8609 18.7233 32.6413 18.5037C32.4309 18.2933 32.3257 18.028 32.3257 17.7078V5.94757C32.3257 5.62738 32.4309 5.3575 32.6413 5.13794C32.8609 4.91837 33.1399 4.80859 33.4784 4.80859C33.7894 4.80859 34.0593 4.91837 34.288 5.13794C34.5167 5.3575 34.6311 5.62738 34.6311 5.94757V17.7078C34.6311 18.028 34.5167 18.2933 34.288 18.5037C34.0593 18.7233 33.7894 18.8331 33.4784 18.8331Z" fill="#87C540"/>
<path d="M15.7484 20.2098C15.4099 20.2098 15.1309 20.1 14.9113 19.8805C14.7009 19.67 14.5957 19.4047 14.5957 19.0845V7.32428C14.5957 7.00408 14.7009 6.73421 14.9113 6.51465C15.1309 6.29508 15.4099 6.1853 15.7484 6.1853C16.0594 6.1853 16.3293 6.29508 16.558 6.51465C16.7867 6.73421 16.9011 7.00408 16.9011 7.32428V19.0845C16.9011 19.4047 16.7867 19.67 16.558 19.8805C16.3293 20.1 16.0594 20.2098 15.7484 20.2098Z" fill="#87C540"/>
</svg>
