<?xml version="1.0" encoding="UTF-8"?>
<svg width="50px" height="50px" viewBox="0 0 50 50" version="1.1" xmlns="http://www.w3.org/2000/svg" xmlns:xlink="http://www.w3.org/1999/xlink">
    <title>Icon/XMP</title>
    <defs>
        <filter id="filter-1">
            <feColorMatrix in="SourceGraphic" type="matrix" values="0 0 0 0 0.529412 0 0 0 0 0.772549 0 0 0 0 0.250980 0 0 0 1.000000 0"></feColorMatrix>
        </filter>
    </defs>
    <g id="Developer-" stroke="none" stroke-width="1" fill="none" fill-rule="evenodd">
        <g id="Apple-TV" transform="translate(-625.000000, -424.000000)">
            <g id="XMP" transform="translate(625.000000, 424.000000)" filter="url(#filter-1)">
                <g>
                    <rect id="Rectangle" x="0" y="0" width="50" height="50"></rect>
                    <g id="Group" transform="translate(8.333333, 6.666667)" fill="#F5F5F5">
                        <path d="M-2.10498285e-13,16.946033 C1.32490258,16.7564503 2.23675003,16.3506452 2.73554234,15.7286175 C4.39596269,13.6378933 2.73554234,5.2719242 4.80982116,2.38777353 C6.19267371,0.465006417 7.94030454,-0.296521997 10.0527137,0.103188289 L10.0527137,3.1338994 C8.38845974,3.01704916 7.37523749,3.82289533 7.01304693,5.55143792 C6.0205748,10.2879787 7.10615875,15.1276346 5.71567723,16.946033 C5.30152542,17.4876388 4.80153119,17.9503564 4.21569454,18.3341856 C4.80153119,18.7163103 5.30152542,19.1790278 5.71567723,19.7206337 C7.10615875,21.539032 6.0205748,26.378688 7.01304693,31.1152288 C7.37523749,32.8437713 8.38845974,33.6496175 10.0527137,33.5327673 L10.0527137,33.5327673 L10.0527137,36.5634784 C7.94030454,36.9631887 6.19267371,36.2016602 4.80982116,34.2788931 C3.84504032,32.9374277 3.68819872,30.4100632 3.62936744,27.8797962 L3.61394844,27.121812 C3.56530351,24.4768436 3.5464453,21.9591005 2.73554234,20.9380492 C2.23675003,20.3160215 1.32490258,19.9102163 -2.11386464e-13,19.7206337 L-2.11386464e-13,19.7206337 L-2.10498285e-13,16.946033 Z" id="Combined-Shape"></path>
                        <path d="M23.3333333,16.946033 C24.5328931,16.7564503 25.3584749,16.3506452 25.8100788,15.7286175 C27.3134146,13.6378933 25.8100788,5.2719242 27.6881199,2.38777353 C28.9401472,0.465006417 30.5224429,-0.296521997 32.4350069,0.103188289 L32.4350069,3.1338994 C30.9282002,3.01704916 30.0108342,3.82289533 29.6829088,5.55143792 C28.7843298,10.2879787 29.7672117,15.1276346 28.5082771,16.946033 C28.1332146,17.4877713 27.6803927,17.9505828 27.1498115,18.3344673 C27.6803927,18.7160839 28.1332146,19.1788953 28.5082771,19.7206337 C29.7672117,21.539032 28.7843298,26.378688 29.6829088,31.1152288 C30.0108342,32.8437713 30.9282002,33.6496175 32.4350069,33.5327673 L32.4350069,33.5327673 L32.4350069,36.5634784 C30.5224429,36.9631887 28.9401472,36.2016602 27.6881199,34.2788931 C25.8100788,31.3947425 27.3134146,23.0287734 25.8100788,20.9380492 C25.3584749,20.3160215 24.5328931,19.9102163 23.3333333,19.7206337 L23.3333333,19.7206337 L23.3333333,16.946033 Z" id="Combined-Shape" transform="translate(27.884170, 18.333333) scale(-1, 1) translate(-27.884170, -18.333333) "></path>
                    </g>
                </g>
            </g>
        </g>
    </g>
</svg>