<?xml version="1.0" encoding="UTF-8"?>
<svg width="30px" height="30px" viewBox="0 0 30 30" version="1.1" xmlns="http://www.w3.org/2000/svg" xmlns:xlink="http://www.w3.org/1999/xlink">
    <title>Icon/capture</title>
    <defs>
        <path d="M9,5 L6,5 C4.34314575,5 3,6.34314575 3,8 L3,11 C3,11.5522847 3.44771525,12 4,12 C4.55228475,12 5,11.5522847 5,11 L5,8 C5,7.44771525 5.44771525,7 6,7 L9,7 C9.55228475,7 10,6.55228475 10,6 C10,5.44771525 9.55228475,5 9,5 Z M27,11 L27,8 C27,6.34314575 25.6568542,5 24,5 L21,5 C20.4477153,5 20,5.44771525 20,6 C20,6.55228475 20.4477153,7 21,7 L24,7 C24.5522847,7 25,7.44771525 25,8 L25,11 C25,11.5522847 25.4477153,12 26,12 C26.5522847,12 27,11.5522847 27,11 Z M21,25 L24,25 C25.6568542,25 27,23.6568542 27,22 L27,19 C27,18.4477153 26.5522847,18 26,18 C25.4477153,18 25,18.4477153 25,19 L25,22 C25,22.5522847 24.5522847,23 24,23 L21,23 C20.4477153,23 20,23.4477153 20,24 C20,24.5522847 20.4477153,25 21,25 Z M3,19 L3,22 C3,23.6568542 4.34314575,25 6,25 L9,25 C9.55228475,25 10,24.5522847 10,24 C10,23.4477153 9.55228475,23 9,23 L6,23 C5.44771525,23 5,22.5522847 5,22 L5,19 C5,18.4477153 4.55228475,18 4,18 C3.44771525,18 3,18.4477153 3,19 Z" id="path-1"></path>
    </defs>
    <g id="Icon/capture" stroke="none" stroke-width="1" fill="none" fill-rule="evenodd">
        <g id="Capture">
            <rect id="Rectangle" x="0" y="0" width="30" height="30"></rect>
            <path d="M15,10 C15.5522847,10 16,10.4477153 16,11 L16,13.999 L19,14 C19.5522847,14 20,14.4477153 20,15 C20,15.5522847 19.5522847,16 19,16 L16,16 L16,19 C16,19.5522847 15.5522847,20 15,20 C14.4477153,20 14,19.5522847 14,19 L14,16 L11,16 C10.4477153,16 10,15.5522847 10,15 C10,14.4477153 10.4477153,14 11,14 L14,14 L14,11 C14,10.4477153 14.4477153,10 15,10 Z" id="Combined-Shape" fill="#F5F5F5"></path>
            <mask id="mask-2" fill="white">
                <use xlink:href="#path-1"></use>
            </mask>
            <use id="Shape" fill="#F5F5F5" xlink:href="#path-1"></use>
        </g>
    </g>
</svg>