<?xml version="1.0" encoding="UTF-8"?>
<svg width="30px" height="30px" viewBox="0 0 30 30" version="1.1" xmlns="http://www.w3.org/2000/svg" xmlns:xlink="http://www.w3.org/1999/xlink">
    <title>Icon/developer</title>
    <defs>
        <filter id="filter-1">
            <feColorMatrix in="SourceGraphic" type="matrix" values="0 0 0 0 0.960784 0 0 0 0 0.960784 0 0 0 0 0.960784 0 0 0 1.000000 0"></feColorMatrix>
        </filter>
    </defs>
    <g id="Icon/developer" stroke="none" stroke-width="1" fill="none" fill-rule="evenodd">
        <g id="Group">
            <rect id="Rectangle" x="0" y="0" width="30" height="30"></rect>
        </g>
        <g filter="url(#filter-1)" id="Filter-2">
            <g transform="translate(3.080000, 4.000000)">
                <path d="M1.221,4.07 L2.7115,4.07 C3.07772656,5.37229466 4.2654406,6.27207435 5.61825,6.27207435 C6.9710594,6.27207435 8.15877344,5.37229466 8.525,4.07 L22.671,4.07 C23.1266349,4.07 23.496,3.70063492 23.496,3.245 C23.496,2.78936508 23.1266349,2.42 22.671,2.42 L8.5305,2.42 C8.16427344,1.11770534 6.9765594,0.217925646 5.62375,0.217925646 C4.2709406,0.217925646 3.08322656,1.11770534 2.717,2.42 L1.221,2.42 C0.765365081,2.42 0.396,2.78936508 0.396,3.245 C0.396,3.70063492 0.765365081,4.07 1.221,4.07 Z M5.621,1.87 C6.38039153,1.87 6.996,2.48560847 6.996,3.245 C6.996,4.00439153 6.38039153,4.62 5.621,4.62 C4.86160847,4.62 4.246,4.00439153 4.246,3.245 C4.246,2.48560847 4.86160847,1.87 5.621,1.87 Z" id="Shape" fill="#F5F5F5"></path>
                <path d="M22.671,10.12 L14.762,10.12 C14.3119176,8.95693657 13.1931129,8.19023586 11.946,8.19023586 C10.6988871,8.19023586 9.58008236,8.95693657 9.13,10.12 L1.221,10.12 C0.765365081,10.12 0.396,10.4893651 0.396,10.945 C0.396,11.4006349 0.765365081,11.77 1.221,11.77 L8.976,11.77 C9.24522146,13.1996533 10.4939687,14.2351943 11.94875,14.2351943 C13.4035313,14.2351943 14.6522785,13.1996533 14.9215,11.77 L22.671,11.77 C23.1266349,11.77 23.496,11.4006349 23.496,10.945 C23.496,10.4893651 23.1266349,10.12 22.671,10.12 Z M11.946,12.595 C11.1866085,12.595 10.571,11.9793915 10.571,11.22 C10.571,10.4606085 11.1866085,9.845 11.946,9.845 C12.7053915,9.845 13.321,10.4606085 13.321,11.22 C13.321,11.9793915 12.7053915,12.595 11.946,12.595 Z" id="Shape" fill="#F5F5F5"></path>
                <path d="M22.671,17.82 L21.1805,17.82 C20.8142734,16.5177053 19.6265594,15.6179256 18.27375,15.6179256 C16.9209406,15.6179256 15.7332266,16.5177053 15.367,17.82 L1.221,17.82 C0.765365081,17.82 0.396,18.1893651 0.396,18.645 C0.396,19.1006349 0.765365081,19.47 1.221,19.47 L15.3615,19.47 C15.7277266,20.7722947 16.9154406,21.6720744 18.26825,21.6720744 C19.6210594,21.6720744 20.8087734,20.7722947 21.175,19.47 L22.671,19.47 C23.1266349,19.47 23.496,19.1006349 23.496,18.645 C23.496,18.1893651 23.1266349,17.82 22.671,17.82 Z M18.271,20.02 C17.5116085,20.02 16.896,19.4043915 16.896,18.645 C16.896,17.8856085 17.5116085,17.27 18.271,17.27 C19.0303915,17.27 19.646,17.8856085 19.646,18.645 C19.646,19.4043915 19.0303915,20.02 18.271,20.02 Z" id="Shape" fill="#F5F5F5"></path>
            </g>
        </g>
    </g>
</svg>