<?xml version="1.0" encoding="UTF-8"?>
<svg width="30px" height="30px" viewBox="0 0 30 30" version="1.1" xmlns="http://www.w3.org/2000/svg" xmlns:xlink="http://www.w3.org/1999/xlink">
    <title>Icon/XMP</title>
    <defs>
        <filter id="filter-1">
            <feColorMatrix in="SourceGraphic" type="matrix" values="0 0 0 0 0.960784 0 0 0 0 0.960784 0 0 0 0 0.960784 0 0 0 1.000000 0"></feColorMatrix>
        </filter>
    </defs>
    <g id="Icon/XMP" stroke="none" stroke-width="1" fill="none" fill-rule="evenodd">
        <g filter="url(#filter-1)" id="XMP">
            <g>
                <rect id="Rectangle" x="0" y="0" width="30" height="30"></rect>
                <g id="Group" transform="translate(5.000000, 4.000000)" fill="#F5F5F5">
                    <path d="M-1.26121336e-13,10.1676198 C0.794941548,10.0538702 1.34205002,9.81038711 1.64132541,9.43717049 C2.63757761,8.18273595 1.64132541,3.16315452 2.8858927,1.43266412 C3.71560422,0.27900385 4.76418273,-0.177913198 6.03162821,0.0619129732 L6.03162821,1.88033964 C5.03307584,1.81022949 4.42514249,2.2937372 4.20782816,3.33086275 C3.61234488,6.17278722 4.26369525,9.07658079 3.42940634,10.1676198 C3.18076719,10.4927769 2.8805612,10.7705447 2.52878836,11.000923 C2.8805612,11.2294553 3.18076719,11.5072231 3.42940634,11.8323802 C4.26369525,12.9234192 3.61234488,15.8272128 4.20782816,18.6691373 C4.42514249,19.7062628 5.03307584,20.1897705 6.03162821,20.1196604 L6.03162821,20.1196604 L6.03162821,21.938087 C4.76418273,22.1779132 3.71560422,21.7209961 2.8858927,20.5673359 C1.64132541,18.8368455 2.63757761,13.817264 1.64132541,12.5628295 C1.34205002,12.1896129 0.794941548,11.9461298 -1.27009514e-13,11.8323802 L-1.27009514e-13,11.8323802 L-1.26121336e-13,10.1676198 Z" id="Combined-Shape"></path>
                    <path d="M14,10.1676198 C14.7197359,10.0538702 15.215085,9.81038711 15.4860473,9.43717049 C16.3880488,8.18273595 15.4860473,3.16315452 16.6128719,1.43266412 C17.3640883,0.27900385 18.3134657,-0.177913198 19.4610042,0.0619129732 L19.4610042,1.88033964 C18.5569201,1.81022949 18.0065005,2.2937372 17.8097453,3.33086275 C17.2705979,6.17278722 17.860327,9.07658079 17.1049663,10.1676198 C16.8798864,10.4927239 16.6081334,10.7704541 16.2897072,11.0008104 C16.6081334,11.2295459 16.8798864,11.5072761 17.1049663,11.8323802 C17.860327,12.9234192 17.2705979,15.8272128 17.8097453,18.6691373 C18.0065005,19.7062628 18.5569201,20.1897705 19.4610042,20.1196604 L19.4610042,20.1196604 L19.4610042,21.938087 C18.3134657,22.1779132 17.3640883,21.7209961 16.6128719,20.5673359 C15.4860473,18.8368455 16.3880488,13.817264 15.4860473,12.5628295 C15.215085,12.1896129 14.7197359,11.9461298 14,11.8323802 L14,11.8323802 L14,10.1676198 Z" id="Combined-Shape" transform="translate(16.730502, 11.000000) scale(-1, 1) translate(-16.730502, -11.000000) "></path>
                </g>
            </g>
        </g>
    </g>
</svg>