{
    "asset": {
        "generator": "Maya2glTF",
        "version": "2.0"
    },
    "scene": 0,
    "scenes": [
        {
            "nodes": [
                0
            ]
        }
    ],
    "nodes": [
        {
            "mesh": 0
        }
    ],
    "meshes": [
        {
            "primitives": [
                {
                    "attributes": {
                        "NORMAL": 1,
                        "POSITION": 2,
                        "TANGENT": 3,
                        "TEXCOORD_0": 4
                    },
                    "indices": 0,
                    "mode": 4,
                    "material": 0
                }
            ]
        }
    ],
    "accessors": [
        {
            "bufferView": 0,
            "byteOffset": 0,
            "componentType": 5123,
            "count": 1440,
            "max": [
                959
            ],
            "min": [
                0
            ],
            "type": "SCALAR"
        },
        {
            "bufferView": 1,
            "byteOffset": 0,
            "componentType": 5126,
            "count": 960,
            "max": [
                0.9946265816688538,
                1.0,
                1.0
            ],
            "min": [
                -0.994626522064209,
                -1.0,
                -1.0
            ],
            "type": "VEC3"
        },
        {
            "bufferView": 1,
            "byteOffset": 11520,
            "componentType": 5126,
            "count": 960,
            "max": [
                0.9959264993667604,
                0.9999999403953552,
                1.0
            ],
            "min": [
                -0.9959264397621156,
                -0.9999999403953552,
                -1.0
            ],
            "type": "VEC3"
        },
        {
            "bufferView": 2,
            "byteOffset": 0,
            "componentType": 5126,
            "count": 960,
            "max": [
                1.0,
                0.1109686866402626,
                0.999999463558197,
                1.0
            ],
            "min": [
                -1.0,
                -0.11096864938735962,
                -0.9999994039535524,
                -1.0
            ],
            "type": "VEC4"
        },
        {
            "bufferView": 3,
            "byteOffset": 0,
            "componentType": 5126,
            "count": 960,
            "max": [
                1.25,
                0.9439286589622498
            ],
            "min": [
                0.0029649711214005949,
                0.0
            ],
            "type": "VEC2"
        }
    ],
    "materials": [
        {
            "pbrMetallicRoughness": {
                "baseColorFactor": [1,1,1,1],
                "metallicFactor": 0.5,
                "roughnessFactor": 0.5
            }
        }
    ],
    "bufferViews": [
        {
            "buffer": 0,
            "byteOffset": 46080,
            "byteLength": 2880,
            "target": 34963
        },
        {
            "buffer": 0,
            "byteOffset": 15360,
            "byteLength": 23040,
            "byteStride": 12,
            "target": 34962
        },
        {
            "buffer": 0,
            "byteOffset": 0,
            "byteLength": 15360,
            "byteStride": 16,
            "target": 34962
        },
        {
            "buffer": 0,
            "byteOffset": 38400,
            "byteLength": 7680,
            "byteStride": 8,
            "target": 34962
        }
    ],
    "buffers": [
        {
            "byteLength": 48960,
            "uri": "InterpolatedNormalsTest.bin"
        }
    ]
}
