{
  "accessors" : {
    "indicesAccessor0" : {
      "bufferView" : "indicesBufferView0",
      "byteOffset" : 0,
      "byteStride" : 2,
      "componentType" : 5123,
      "count" : 100623,
      "type" : "SCALAR",
      "max" : [ 41087 ],
      "min" : [ 0 ]
    },
    "verticesAccessor0" : {
      "bufferView" : "verticesBufferView0",
      "byteOffset" : 0,
      "byteStride" : 12,
      "componentType" : 5126,
      "count" : 41088,
      "type" : "VEC3",
      "max" : [ 0.125203, 0.187788, 0.365488 ],
      "min" : [ -0.199931, -0.472087, -1.195573 ]
    },
    "texCoordsAccessor0" : {
      "bufferView" : "texCoordsBufferView0",
      "byteOffset" : 0,
      "byteStride" : 8,
      "componentType" : 5126,
      "count" : 41088,
      "type" : "VEC2",
      "max" : [ 1.9977, 0.9947 ],
      "min" : [ 0.005, 0.0031999946 ]
    },
    "normalsAccessor0" : {
      "bufferView" : "normalsBufferView0",
      "byteOffset" : 0,
      "byteStride" : 12,
      "componentType" : 5126,
      "count" : 41088,
      "type" : "VEC3",
      "max" : [ 1.0, 1.0, 1.0 ],
      "min" : [ -1.0, -1.0, -1.0 ]
    }
  },
  "asset" : {
    "generator" : "jgltf-obj from https://github.com/javagl/JglTF",
    "version" : "1.1.0"
  },
  "buffers" : {
    "buffer0" : {
      "uri" : "Cerberus.bin",
      "byteLength" : 1516064,
      "type" : "arraybuffer"
    }
  },
  "bufferViews" : {
    "indicesBufferView0" : {
      "buffer" : "buffer0",
      "byteOffset" : 0,
      "byteLength" : 201246,
      "target" : 34963
    },
    "verticesBufferView0" : {
      "buffer" : "buffer0",
      "byteOffset" : 201248,
      "byteLength" : 493056,
      "target" : 34962
    },
    "texCoordsBufferView0" : {
      "buffer" : "buffer0",
      "byteOffset" : 694304,
      "byteLength" : 328704,
      "target" : 34962
    },
    "normalsBufferView0" : {
      "buffer" : "buffer0",
      "byteOffset" : 1023008,
      "byteLength" : 493056,
      "target" : 34962
    }
  },
  "images" : {
    "imageA" : {
      "uri" : "Cerberus_A.jpg"
    },
    "imageMR" : {
      "uri" : "Cerberus_MR.jpg"
    },
    "imageN" : {
      "uri" : "Cerberus_N.jpg"
    }
  },
  "meshes" : {
    "mesh0" : {
      "primitives" : [ {
        "attributes" : {
          "POSITION" : "verticesAccessor0",
          "TEXCOORD_0" : "texCoordsAccessor0",
          "NORMAL" : "normalsAccessor0"
        },
        "indices" : "indicesAccessor0",
        "material" : "pbrMaterial",
        "mode" : 4
      } ]
    }
  },
  "nodes" : {
    "node0" : {
      "meshes" : [ "mesh0" ]
    }
  },
  "samplers" : {
    "sampler0" : { }
  },
  "scene" : "scene0",
  "scenes" : {
    "scene0" : {
      "nodes" : [ "node0" ]
    }
  },
  "programs" : {
    "pbrProgram" : {
      "attributes" : [ "a_position", "a_normal", "a_texCoord0" ],
      "fragmentShader" : "pbrFragmentShader",
      "vertexShader" : "pbrVertexShader"
    }
  },
  "shaders" : {
    "pbrVertexShader" : {
      "uri" : "pbr.vert",
      "type" : 35633
    },
    "pbrFragmentShader" : {
      "uri" : "pbr.frag",
      "type" : 35632
    }
  },
  
  
  "materials" : {
    "pbrMaterial" : {
      "technique" : "pbrTechnique",
      "values" : {
        "baseColorFactor" : [ 2.0, 2.0, 2.0, 2.0 ],
        "baseColorTexture" : "textureA",
        "hasBaseColorTexture" : [ 1 ],
        "metallicFactor" : [ 0.8 ],
        "roughnessFactor" : [ 1.0 ],
        "metallicRoughnessTexture" : "textureMR",
        "hasMetallicRoughnessTexture" : [ 1 ],
        "normalTexture" : "textureN",
        "hasNormalTexture" : [ 1 ],
        "normalScale" : [ 1.0 ],
        "occlusionStrength" : [ 0.0 ],
        "emissionFactor" : [ 0.0, 0.0, 0.0 ]
      }
    }
  },
  "techniques" : {
    "pbrTechnique" : {
      "program" : "pbrProgram",
      "parameters" : {
        "position" : {
          "type" : 35666,
          "semantic" : "POSITION"
        },
        "normal" : {
          "type" : 35666,
          "semantic" : "NORMAL"
        },
        "tangent" : {
          "type" : 35666,
          "semantic" : "TANGENT"
        },
        
        "modelViewMatrix" : {
          "type" : 35676,
          "semantic" : "MODELVIEW"
        },
        "projectionMatrix" : {
          "type" : 35676,
          "semantic" : "PROJECTION"
        },
        "normalMatrix" : {
          "type" : 35675,
          "semantic" : "MODELVIEWINVERSETRANSPOSE"
        },
        
        "baseColorFactor" : {
          "type" : 35666
        },
        "baseColorTexture" : {
          "type" : 35678
        },
        "hasBaseColorTexture" : {
          "type" : 5124
        },
        "baseColorTexCoord" : {
          "semantic": "TEXCOORD_0",
          "type" : 35664
        },
        
        "metallicFactor" : {
          "type" : 5126
        },
        "roughnessFactor" : {
          "type" : 5126
        },
        "metallicRoughnessTexture" : {
          "type" : 35678
        },
        "hasMetallicRoughnessTexture" : {
          "type" : 5124
        },
        "metallicRoughnessTexCoord" : {
          "semantic": "TEXCOORD_0",
          "type" : 35664
        },
        
        "normalTexture" : {
          "type" : 35678
        },
        "hasNormalTexture" : {
          "type" : 5124
        },
        "normalTexCoord" : {
          "semantic": "TEXCOORD_0",
          "type" : 35664
        },
        "normalScale" : {
          "type" : 5126
        },

        "occlusionTexture" : {
          "type" : 35678
        },
        "hasOcclusionTexture" : {
          "type" : 5124
        },
        "occlusionTexCoord" : {
          "semantic": "TEXCOORD_0",
          "type" : 35664
        },
        "occlusionStrength" : {
          "type" : 5126
        },

        "emissionTexture" : {
          "type" : 35678
        },
        "hasEmissionTexture" : {
          "type" : 5124
        },
        "emissionTexCoord" : {
          "semantic": "TEXCOORD_0",
          "type" : 35664
        },
        "emissionFactor" : {
          "type" : 35665
        }
        
      },
      "attributes" : {
        "a_position" : "position",
        "a_normal" : "normal",
        "a_baseColorTexCoord" : "baseColorTexCoord",
        "a_metallicRoughnessTexCoord" : "metallicRoughnessTexCoord", 
	"a_normalTexCoord" : "normalTexCoord",
	"a_occlusionTexCoord" : "occlusionTexCoord",
	"a_emissionTexCoord" : "emissionTexCoord"
      },
      "uniforms" : {
        "u_modelViewMatrix" : "modelViewMatrix",
        "u_projectionMatrix" : "projectionMatrix",
        "u_normalMatrix" : "normalMatrix",
        "u_baseColorFactor" : "baseColorFactor",
        "u_baseColorTexture" : "baseColorTexture",
        "u_hasBaseColorTexture" : "hasBaseColorTexture",
        "u_metallicFactor" : "metallicFactor",
        "u_roughnessFactor" : "roughnessFactor",
        "u_metallicRoughnessTexture" : "metallicRoughnessTexture",
        "u_hasMetallicRoughnessTexture" : "hasMetallicRoughnessTexture",
        "u_normalTexture" : "normalTexture",
        "u_hasNormalTexture" : "hasNormalTexture",
        "u_normalScale" : "normalScale",
        "u_occlusionTexture" : "occlusionTexture",
        "u_hasOcclusionTexture" : "hasOcclusionTexture",
        "u_occlusionStrength" : "occlusionStrength",
        "u_emissionTexture" : "emissionTexture",
        "u_hasEmissionTexture" : "hasEmissionTexture",
        "u_emissionFactor" : "emissionFactor"
      },
      "states" : {
        "enable" : [ 2884, 2929 ]
      }
    }
  },
  
  "textures" : {
    "textureA" : {
      "format" : 6408,
      "internalFormat" : 6408,
      "sampler" : "sampler0",
      "source" : "imageA",
      "target" : 3553,
      "type" : 5121
    },
    "textureMR" : {
      "format" : 6408,
      "internalFormat" : 6408,
      "sampler" : "sampler0",
      "source" : "imageMR",
      "target" : 3553,
      "type" : 5121
    },
    "textureN" : {
      "format" : 6408,
      "internalFormat" : 6408,
      "sampler" : "sampler0",
      "source" : "imageN",
      "target" : 3553,
      "type" : 5121
    }
  }
}