{
  "accessors": [
    {
      "bufferView": 0,
      "byteOffset": 0,
      "componentType": 5126,
      "count": 406,
      "type": "VEC2",
      "max": [
        0.9824978,
        -0.00462793233
      ],
      "min": [
        0.00678020436,
        -0.997018039
      ]
    },
    {
      "bufferView": 1,
      "byteOffset": 0,
      "componentType": 5126,
      "count": 406,
      "type": "VEC3",
      "max": [
        0.9959669,
        0.974968433,
        0.9986338
      ],
      "min": [
        -0.995177031,
        -0.9995665,
        -0.9988549
      ]
    },
    {
      "bufferView": 2,
      "byteOffset": 0,
      "componentType": 5126,
      "count": 406,
      "type": "VEC3",
      "max": [
        0.02128091,
        0.06284806,
        0.0138090011
      ],
      "min": [
        -0.02128091,
        -4.773855E-05,
        -0.013809
      ]
    },
    {
      "bufferView": 3,
      "byteOffset": 0,
      "componentType": 5123,
      "count": 2046,
      "type": "SCALAR",
      "max": [
        405
      ],
      "min": [
        0
      ]
    }
  ],
  "asset": {
    "generator": "glTF Tools for Unity",
    "version": "2.0"
  },
  "bufferViews": [
    {
      "buffer": 0,
      "byteOffset": 0,
      "byteLength": 3248,
      "target": 34962
    },
    {
      "buffer": 0,
      "byteOffset": 3248,
      "byteLength": 4872,
      "target": 34962
    },
    {
      "buffer": 0,
      "byteOffset": 8120,
      "byteLength": 4872,
      "target": 34962
    },
    {
      "buffer": 0,
      "byteOffset": 12992,
      "byteLength": 4092,
      "target": 34962
    }
  ],
  "buffers": [
    {
      "uri": "Avocado.bin",
      "byteLength": 17084
    }
  ],
  "extensionsUsed": [
    "KHR_materials_pbrSpecularGlossiness"
  ],
  "images": [
    {
      "uri": "Avocado_baseColor.png"
    },
    {
      "uri": "Avocado_metallicRoughness.png"
    },
    {
      "uri": "Avocado_normal.png"
    },
    {
      "uri": "Avocado_diffuse.png"
    },
    {
      "uri": "Avocado_specularGlossiness.png"
    }
  ],
  "meshes": [
    {
      "primitives": [
        {
          "attributes": {
            "TEXCOORD_0": 0,
            "NORMAL": 1,
            "POSITION": 2
          },
          "indices": 3,
          "material": 0,
          "mode": 4
        }
      ],
      "name": "Avocado"
    }
  ],
  "materials": [
    {
      "pbrMetallicRoughness": {
        "baseColorTexture": {
          "index": 0
        },
        "metallicRoughnessTexture": {
          "index": 1
        }
      },
      "normalTexture": {
        "index": 2
      },
      "name": "2256_Avocado_d",
      "extensions": {
        "KHR_materials_pbrSpecularGlossiness": {
          "diffuseTexture": {
            "index": 3
          },
          "specularGlossinessTexture": {
            "index": 4
          }
        }
      }
    }
  ],
  "nodes": [
    {
      "children": [],
      "mesh": 0,
      "scale": [
        25.0,
        25.0,
        25.0
      ],
      "translation": [
        0.0,
        -0.772,
        0.0
      ],
      "name": "Avocado"
    }
  ],
  "samplers": [
    {}
  ],
  "scene": 0,
  "scenes": [
    {
      "nodes": [
        0
      ]
    }
  ],
  "textures": [
    {
      "sampler": 0,
      "source": 0
    },
    {
      "sampler": 0,
      "source": 1
    },
    {
      "sampler": 0,
      "source": 2
    },
    {
      "sampler": 0,
      "source": 3
    },
    {
      "sampler": 0,
      "source": 4
    }
  ]
}